PathFileType	4	(X/Y/Z)	/home/nbianco/projects/addbio/data/HamnerRunning2013/Processed/subject20//results/MarkerData/run300.trc
DataRate	CameraRate	NumFrames	NumMarkers	Units	OrigDataRate	OrigDataStartFrame	OrigNumFrames
120.005	120.005	10	42	m	120.005	151	242
Frame#	Time	C7			CLAV			LACR			LASI			LCAL			LFAradius			LFAsuperior			LFAulna			LLEL			LMEL			LMT5			LPSI			LTB1			LTB2			LTB3			LTH1			LTH2			LTH3			LTOE			LUA1			LUA2			LUA3			RACR			RASI			RCAL			RFAradius			RFAsuperior			RFAulna			RLEL			RMEL			RMT5			RPSI			RTB1			RTB2			RTB3			RTH1			RTH2			RTH3			RTOE			RUA1			RUA2			RUA3		
		X1	Y1	Z1	X2	Y2	Z2	X3	Y3	Z3	X4	Y4	Z4	X5	Y5	Z5	X6	Y6	Z6	X7	Y7	Z7	X8	Y8	Z8	X9	Y9	Z9	X10	Y10	Z10	X11	Y11	Z11	X12	Y12	Z12	X13	Y13	Z13	X14	Y14	Z14	X15	Y15	Z15	X16	Y16	Z16	X17	Y17	Z17	X18	Y18	Z18	X19	Y19	Z19	X20	Y20	Z20	X21	Y21	Z21	X22	Y22	Z22	X23	Y23	Z23	X24	Y24	Z24	X25	Y25	Z25	X26	Y26	Z26	X27	Y27	Z27	X28	Y28	Z28	X29	Y29	Z29	X30	Y30	Z30	X31	Y31	Z31	X32	Y32	Z32	X33	Y33	Z33	X34	Y34	Z34	X35	Y35	Z35	X36	Y36	Z36	X37	Y37	Z37	X38	Y38	Z38	X39	Y39	Z39	X40	Y40	Z40	X41	Y41	Z41	X42	Y42	Z42

152	1.425	0.712079	1.54025	-0.391489	0.830137	1.45652	-0.325072	0.791687	1.47824	-0.558888	0.764925	1.02128	-0.501585	0.244644	0.231999	-0.42936	0.903902	1.24846	-0.528048	0.822721	1.23683	-0.683568	0.925343	1.19097	-0.551899	0.762534	1.22652	-0.723121	0.698276	1.17759	-0.675681	0.354958	0.0706152	-0.484019	0.598757	1.06076	-0.411752	0.519442	0.416435	-0.442373	0.426576	0.350551	-0.495633	0.402093	0.265217	-0.425012	0.684508	0.880637	-0.537823	0.697112	0.758967	-0.518187	0.576133	0.656394	-0.508046	0.399397	0.0827348	-0.40301	0.776334	1.41034	-0.621533	0.709487	1.34996	-0.634688	0.773808	1.32496	-0.668571	0.698595	1.50084	-0.199957	0.7634	1.05419	-0.260965	0.692651	0.246046	-0.328749	0.724737	1.17598	-0.120043	0.583977	1.25141	-0.0706362	0.679132	1.12421	-0.116994	0.511607	1.2947	-0.071084	0.475851	1.27779	-0.152572	0.833069	0.131972	-0.227359	0.601664	1.06514	-0.324868	0.939916	0.474183	-0.281907	0.875015	0.427939	-0.233302	0.847779	0.32058	-0.305236	0.797041	0.8904	-0.204227	0.906551	0.814451	-0.226551	0.89388	0.671093	-0.222895	0.883683	0.139243	-0.312555	0.632668	1.42422	-0.136467	0.626909	1.35384	-0.1246	0.523022	1.37554	-0.123643
153	1.43333	0.713138	1.54348	-0.390694	0.830469	1.46013	-0.322975	0.794986	1.4826	-0.556908	0.766822	1.025	-0.498978	0.23681	0.248451	-0.4326	0.900734	1.25307	-0.525051	0.823521	1.24233	-0.682884	0.921905	1.19534	-0.548823	0.764009	1.23263	-0.723394	0.697242	1.185	-0.677442	0.334577	0.076151	-0.485975	0.60073	1.0651	-0.411878	0.514121	0.420366	-0.443704	0.419366	0.357687	-0.497261	0.392199	0.272526	-0.427385	0.684568	0.883953	-0.537516	0.695611	0.762245	-0.51921	0.574494	0.660241	-0.507895	0.379753	0.0879046	-0.404668	0.779874	1.41607	-0.620368	0.712194	1.35808	-0.636511	0.776737	1.33082	-0.668646	0.698119	1.50365	-0.199788	0.764251	1.05756	-0.259002	0.719037	0.222597	-0.33115	0.723443	1.18125	-0.116635	0.581943	1.25678	-0.0691782	0.678234	1.12942	-0.112944	0.509517	1.29964	-0.0709535	0.474616	1.28214	-0.152762	0.869571	0.12468	-0.227207	0.604424	1.07026	-0.324829	0.946207	0.473029	-0.282613	0.884621	0.422208	-0.234301	0.867258	0.311995	-0.306346	0.796917	0.892847	-0.204707	0.905872	0.815362	-0.227089	0.890072	0.670711	-0.225884	0.919914	0.13656	-0.312232	0.631692	1.42841	-0.136166	0.625674	1.35805	-0.123836	0.521828	1.37997	-0.123731
154	1.44167	0.714269	1.54607	-0.389857	0.830975	1.46289	-0.320999	0.797772	1.48617	-0.554985	0.768398	1.02867	-0.496423	0.22993	0.265357	-0.435171	0.897363	1.25682	-0.522521	0.823642	1.2469	-0.68226	0.918186	1.19872	-0.546376	0.764702	1.23793	-0.72369	0.69574	1.19175	-0.679076	0.313804	0.0832705	-0.487297	0.602454	1.06909	-0.412154	0.510364	0.423286	-0.444656	0.413488	0.364306	-0.498325	0.382904	0.279869	-0.429232	0.684828	0.887034	-0.537114	0.695301	0.765261	-0.520678	0.57477	0.662935	-0.507589	0.360112	0.0944861	-0.405963	0.782781	1.42102	-0.619229	0.71458	1.36543	-0.638104	0.779016	1.33582	-0.668557	0.698027	1.50567	-0.199509	0.764659	1.06002	-0.257491	0.744938	0.200391	-0.33227	0.722758	1.18573	-0.113107	0.580525	1.26131	-0.0675337	0.677882	1.1339	-0.108947	0.508055	1.30367	-0.0705461	0.47389	1.28561	-0.152595	0.90488	0.119356	-0.227538	0.606524	1.07511	-0.324908	0.950892	0.470883	-0.283248	0.89269	0.415839	-0.23514	0.885359	0.303681	-0.307046	0.7958	0.893349	-0.205008	0.904526	0.814352	-0.227942	0.885536	0.668697	-0.22817	0.953641	0.135859	-0.312857	0.631195	1.43176	-0.1357	0.624954	1.36147	-0.12284	0.521104	1.38356	-0.123511
155	1.45	0.715475	1.54796	-0.388883	0.831579	1.46475	-0.319213	0.800077	1.48891	-0.553152	0.769593	1.03208	-0.494002	0.223714	0.282546	-0.436976	0.893803	1.25954	-0.520417	0.823058	1.25047	-0.681621	0.914199	1.20101	-0.544337	0.764611	1.24234	-0.724022	0.693772	1.19774	-0.680532	0.293096	0.0923866	-0.487916	0.603931	1.07272	-0.412476	0.507995	0.425446	-0.445291	0.408814	0.370585	-0.498935	0.374249	0.287547	-0.430542	0.68559	0.889753	-0.53666	0.696474	0.767733	-0.522159	0.577071	0.664492	-0.507385	0.340624	0.102512	-0.406767	0.785053	1.42509	-0.618133	0.716598	1.37176	-0.639252	0.780627	1.33997	-0.668286	0.698339	1.50689	-0.199038	0.764839	1.0617	-0.256508	0.769901	0.180112	-0.332436	0.722799	1.18943	-0.109305	0.579731	1.26491	-0.0657003	0.678143	1.13759	-0.104971	0.507242	1.30674	-0.0698514	0.473655	1.28812	-0.152056	0.938072	0.115987	-0.22848	0.607521	1.07936	-0.325062	0.954031	0.46795	-0.283816	0.899045	0.409065	-0.235932	0.901828	0.295926	-0.307318	0.793982	0.892091	-0.205053	0.902446	0.81142	-0.229106	0.880174	0.665177	-0.229886	0.984187	0.13682	-0.314473	0.63118	1.43419	-0.135015	0.624748	1.36399	-0.1216	0.520868	1.38624	-0.123001
156	1.45833	0.716733	1.5491	-0.387667	0.832231	1.4657	-0.317672	0.801953	1.49078	-0.551422	0.770455	1.03499	-0.49185	0.217867	0.299908	-0.437966	0.89006	1.26097	-0.518679	0.821806	1.25298	-0.681064	0.909922	1.2021	-0.542542	0.763731	1.24584	-0.724384	0.691314	1.2029	-0.68177	0.273416	0.103893	-0.488058	0.605216	1.07585	-0.412683	0.506928	0.427016	-0.44575	0.40525	0.376706	-0.499222	0.366335	0.295834	-0.431289	0.687125	0.891836	-0.53619	0.699268	0.769343	-0.523144	0.581457	0.664769	-0.507599	0.321816	0.112116	-0.407125	0.786734	1.42823	-0.617076	0.718187	1.37686	-0.639765	0.781558	1.3433	-0.667961	0.699036	1.50732	-0.198317	0.764959	1.06262	-0.255789	0.793327	0.162398	-0.332283	0.723592	1.19229	-0.105236	0.579569	1.26751	-0.0636889	0.679064	1.1404	-0.100979	0.507079	1.30877	-0.0688629	0.47386	1.28955	-0.151122	0.968035	0.114336	-0.230045	0.607601	1.08261	-0.325112	0.955815	0.464535	-0.284361	0.903801	0.402283	-0.236788	0.916395	0.28908	-0.307382	0.791828	0.889432	-0.204842	0.899529	0.806753	-0.230443	0.873948	0.66037	-0.231247	1.01096	0.139054	-0.316761	0.631636	1.43565	-0.134069	0.625039	1.36554	-0.120146	0.521125	1.38793	-0.122218
157	1.46667	0.71799	1.54947	-0.386166	0.832919	1.46574	-0.316377	0.803445	1.4917	-0.549792	0.771122	1.0372	-0.490163	0.212264	0.31744	-0.438195	0.886176	1.26099	-0.51729	0.819995	1.25446	-0.68084	0.905309	1.20194	-0.540933	0.762058	1.24841	-0.724753	0.688334	1.20714	-0.682753	0.255794	0.117875	-0.488051	0.606374	1.07825	-0.412646	0.507148	0.42808	-0.446155	0.402789	0.382824	-0.499292	0.359346	0.304906	-0.431485	0.689547	0.892943	-0.535714	0.703614	0.76985	-0.523268	0.587829	0.663552	-0.50842	0.304469	0.123482	-0.40717	0.787886	1.4304	-0.61605	0.719252	1.38061	-0.639545	0.781787	1.3458	-0.667716	0.700061	1.50697	-0.197329	0.765074	1.06271	-0.255048	0.814369	0.147608	-0.332466	0.725089	1.19424	-0.101019	0.580049	1.26903	-0.061497	0.680666	1.14228	-0.0969309	0.507545	1.30967	-0.0675666	0.474512	1.28981	-0.149774	0.993666	0.113898	-0.232146	0.607547	1.08448	-0.324865	0.956464	0.460934	-0.28508	0.90737	0.395881	-0.237811	0.928699	0.283381	-0.307725	0.789639	0.885748	-0.204393	0.895683	0.800654	-0.231766	0.867078	0.654617	-0.232403	1.03342	0.142091	-0.319244	0.632528	1.43611	-0.132837	0.625802	1.36606	-0.118524	0.521861	1.38855	-0.121163
158	1.475	0.719182	1.54905	-0.38445	0.833639	1.46488	-0.315265	0.804603	1.49162	-0.548257	0.771762	1.03852	-0.489081	0.207137	0.33524	-0.437813	0.882224	1.25969	-0.516314	0.817729	1.25487	-0.681166	0.90033	1.20049	-0.539557	0.759597	1.25005	-0.725087	0.684818	1.21039	-0.683436	0.240884	0.133961	-0.488075	0.607432	1.07963	-0.41232	0.508661	0.428675	-0.446582	0.401539	0.389054	-0.49923	0.353558	0.314781	-0.431232	0.69278	0.892835	-0.53524	0.709258	0.769189	-0.522505	0.59589	0.660767	-0.509816	0.289347	0.136687	-0.407	0.788558	1.43155	-0.615047	0.719658	1.38298	-0.63862	0.781275	1.3474	-0.66757	0.701329	1.50581	-0.196089	0.765144	1.06188	-0.254201	0.832018	0.135656	-0.333299	0.727231	1.19519	-0.0967662	0.581184	1.26944	-0.0590915	0.682953	1.1432	-0.0927987	0.508615	1.30941	-0.0659296	0.475677	1.28882	-0.147987	1.01417	0.113996	-0.234644	0.608137	1.08469	-0.324271	0.956145	0.45731	-0.286292	0.910232	0.390059	-0.239091	0.938315	0.278783	-0.308865	0.787565	0.88133	-0.203684	0.89092	0.79348	-0.232941	0.860115	0.648375	-0.233397	1.05109	0.145382	-0.321614	0.633798	1.43553	-0.131309	0.627004	1.36552	-0.116754	0.523035	1.38801	-0.11981
159	1.48333	0.720245	1.54781	-0.382679	0.834384	1.46309	-0.314252	0.805467	1.49053	-0.546823	0.772495	1.03884	-0.488563	0.203091	0.353431	-0.437002	0.878271	1.25725	-0.515845	0.814993	1.25413	-0.681975	0.895006	1.19775	-0.538525	0.756366	1.25075	-0.725336	0.680764	1.21259	-0.68376	0.228807	0.151482	-0.488071	0.608351	1.0797	-0.41176	0.511463	0.428823	-0.447087	0.401689	0.395442	-0.499113	0.349309	0.3253	-0.430715	0.696634	0.891505	-0.534804	0.71583	0.767484	-0.521194	0.605177	0.656621	-0.511575	0.276953	0.151567	-0.406644	0.788747	1.43163	-0.614076	0.719247	1.38399	-0.63712	0.779976	1.34804	-0.667438	0.70275	1.50379	-0.194645	0.765086	1.06008	-0.253363	0.845372	0.126007	-0.334542	0.729986	1.19516	-0.0925247	0.582982	1.26873	-0.0564156	0.685926	1.14315	-0.0885609	0.510267	1.30795	-0.0638978	0.477407	1.28652	-0.145728	1.0293	0.113957	-0.2374	0.609463	1.08314	-0.32349	0.95497	0.453639	-0.288253	0.912643	0.38478	-0.240665	0.944889	0.274913	-0.311003	0.78561	0.876409	-0.202636	0.885515	0.785699	-0.233908	0.8538	0.642135	-0.234238	1.06366	0.148329	-0.323934	0.635376	1.43391	-0.129493	0.62862	1.36392	-0.114805	0.524599	1.38627	-0.118106
160	1.49167	0.721136	1.5457	-0.381007	0.835148	1.46036	-0.313282	0.806063	1.48845	-0.545507	0.773355	1.03812	-0.488371	0.200928	0.372063	-0.435891	0.874338	1.25384	-0.515924	0.811632	1.25217	-0.682864	0.88942	1.19374	-0.537945	0.752391	1.2505	-0.725434	0.676176	1.21372	-0.683658	0.219349	0.169795	-0.487885	0.609054	1.07823	-0.411098	0.515536	0.428524	-0.447746	0.403435	0.401952	-0.499009	0.34693	0.336183	-0.430132	0.700913	0.889151	-0.534462	0.722933	0.764963	-0.519862	0.615166	0.651554	-0.513435	0.267424	0.167701	-0.406137	0.788398	1.43059	-0.613151	0.717898	1.38374	-0.635219	0.77786	1.34769	-0.667208	0.704261	1.50088	-0.193049	0.764832	1.05732	-0.252701	0.853933	0.117887	-0.335534	0.733348	1.19419	-0.0882904	0.585429	1.2669	-0.0534155	0.689577	1.14213	-0.0842043	0.512486	1.30527	-0.0614103	0.479666	1.2829	-0.142952	1.03936	0.113202	-0.240327	0.610807	1.07985	-0.32281	0.953028	0.44977	-0.290974	0.914462	0.379859	-0.242475	0.948297	0.271222	-0.313833	0.783706	0.871212	-0.201169	0.880134	0.77799	-0.234646	0.848788	0.636296	-0.234988	1.07123	0.150276	-0.326571	0.637195	1.4312	-0.127406	0.630628	1.36127	-0.112605	0.526505	1.38328	-0.115981
161	1.5	0.721846	1.54264	-0.379478	0.835939	1.45673	-0.312347	0.80638	1.48544	-0.544334	0.774288	1.03641	-0.488195	0.201381	0.391035	-0.434546	0.870418	1.24939	-0.516469	0.807465	1.24902	-0.683372	0.883678	1.18853	-0.537853	0.7477	1.24929	-0.725307	0.671059	1.21383	-0.683073	0.212272	0.188508	-0.487487	0.609473	1.07511	-0.410506	0.520882	0.427781	-0.44861	0.406917	0.408458	-0.498953	0.346668	0.347114	-0.429609	0.705463	0.885994	-0.534244	0.730226	0.761853	-0.518955	0.625404	0.64602	-0.515202	0.260598	0.184516	-0.405612	0.787424	1.42842	-0.612267	0.715585	1.3823	-0.633085	0.774939	1.34634	-0.666819	0.705833	1.49701	-0.19133	0.764357	1.05373	-0.252278	0.857734	0.110664	-0.335661	0.737307	1.19233	-0.0840613	0.588485	1.26392	-0.050065	0.693899	1.14012	-0.0797272	0.515247	1.30133	-0.0584234	0.482348	1.27793	-0.139626	1.04492	0.111175	-0.243403	0.611244	1.07502	-0.322467	0.95038	0.445506	-0.294177	0.915231	0.375077	-0.24434	0.948728	0.267189	-0.316678	0.781806	0.86596	-0.199352	0.875747	0.77119	-0.235156	0.84537	0.631038	-0.235773	1.07425	0.150359	-0.329884	0.639204	1.42735	-0.125076	0.633002	1.35755	-0.110102	0.528715	1.37899	-0.113369
